<?xml version="1.0" encoding="UTF-8"?>
<svg id="Layer_1" xmlns="http://www.w3.org/2000/svg" version="1.1" viewBox="0 0 64 64">
  <!-- Generator: Adobe Illustrator 30.0.0, SVG Export Plug-In . SVG Version: 2.1.1 Build 123)  -->
  <defs>
    <style>
      .st0 {
        fill: #5b5bd6;
      }

      .st1 {
        fill: #fff;
      }
    </style>
  </defs>
  <path class="st0" d="M48,0H16C7.16,0,0,7.16,0,16v32c0,8.84,7.16,16,16,16h32c8.84,0,16-7.16,16-16V16c0-8.84-7.16-16-16-16Z"/>
  <path class="st1" d="M51.14,24.47l-22.4,22.4c-.57.57-1.32.86-2.07.86s-1.5-.29-2.07-.86l-11.73-11.73c-1.15-1.15-1.15-3,0-4.15,1.14-1.15,3-1.15,4.15,0l9.66,9.66,20.33-20.33c1.15-1.15,3-1.15,4.15,0s1.15,3,0,4.15h-.02Z"/>
</svg>